Coordinates
version=1
nRows=11
nColumns=36
inDegrees=yes

Units are S.I. units (second, meters, Newtons, ...)
If the header above contains a line with 'inDegrees', this indicates whether rotational values are in degrees (yes) or radians (no).

endheader
time	pelvis_tilt	pelvis_list	pelvis_rotation	pelvis_tx	pelvis_ty	pelvis_tz	hip_flexion_r	hip_adduction_r	hip_rotation_r	knee_angle_r	knee_angle_r_beta	ankle_angle_r	subtalar_angle_r	mtp_angle_r	hip_flexion_l	hip_adduction_l	hip_rotation_l	knee_angle_l	knee_angle_l_beta	ankle_angle_l	subtalar_angle_l	mtp_angle_l	lumbar_extension	lumbar_bending	lumbar_rotation	arm_flex_r	arm_add_r	arm_rot_r	elbow_flex_r	pro_sup_r	arm_flex_l	arm_add_l	arm_rot_l	elbow_flex_l	pro_sup_l
      1.30833330	    -14.87109107	      0.00765050	      1.66495597	     -0.90739054	      1.12387837	     -0.06822529	     56.47206005	     -1.37560103	     -0.95687773	     75.58763252	      1.31925306	     27.04578601	    -26.91524410	     -7.49999987	     53.47056958	     -8.82571142	     -1.04210068	     75.51204124	      1.31793374	     34.32190957	      5.93218002	     -7.49999987	    -61.82855046	     -1.93970564	      0.32272316	     31.11825093	     -6.64999019	      0.07835021	     39.49206840	    101.03972166	     29.36050049	     -5.61692134	     -7.58025022	     38.22814319	     89.54723090
      1.31250000	    -15.04153029	      0.03361268	      1.53398437	     -0.90058919	      1.12105828	     -0.06981814	     56.74760979	     -1.25554366	     -0.73249504	     75.84487347	      1.32374276	     27.01515912	    -26.90085489	     -7.49999987	     53.82340974	     -9.11996224	     -1.23135323	     76.04875120	      1.32730110	     34.18404467	      5.91970678	     -7.49999987	    -62.05548429	     -1.93409309	      0.31766410	     32.72983079	     -6.64561427	      0.04901102	     39.79141125	    101.08042828	     30.98076486	     -5.49621265	     -7.47052595	     38.63338932	     89.60870510
      1.31666670	    -14.98008748	     -0.00682411	      1.14675471	     -0.89717696	      1.12031449	     -0.06602008	     56.37852343	     -0.69932768	     -0.42598048	     75.73553536	      1.32183445	     27.24130326	    -26.79174591	     -7.49999987	     53.71121629	     -9.83185467	     -1.59942540	     76.36893187	      1.33288931	     34.26127552	      6.51775507	     -7.49999987	    -62.22729591	     -2.27082832	      0.73087226	     34.50730246	     -6.81503679	      0.70914230	     38.71706740	    102.19558090	     33.08269232	     -5.63195451	     -5.77179417	     37.67913435	     90.83759385
      1.32083330	    -15.17171693	     -0.02274882	      0.81512604	     -0.90402338	      1.11813538	     -0.06690074	     56.82275540	     -0.29339441	     -0.12043259	     76.04671040	      1.32726548	     27.40167947	    -26.69789944	     -7.49999987	     54.19190968	    -10.35860266	     -1.94405974	     76.92656223	      1.34262179	     34.20965945	      6.77218242	     -7.49999987	    -62.27316816	     -2.55576628	      0.95281666	     35.97454505	     -6.78304631	      0.74210530	     38.98457415	    102.35177367	     34.71234954	     -5.54314224	     -5.61269760	     38.11628190	     90.99279514
      1.32500000	    -15.43867317	      0.04737917	      0.56787264	     -0.90674637	      1.12166172	     -0.06576873	     57.36470016	     -0.04276448	      0.05442476	     75.97483310	      1.32601099	     27.23551635	    -26.56792369	     -7.49999987	     54.53390698	    -10.57313214	     -2.18698484	     76.91741114	      1.34246208	     33.90082566	      6.73304759	     -7.49999987	    -62.24916258	     -2.86914899	      0.99754351	     37.71524048	     -6.81271776	      1.26572443	     38.70867896	    102.40481638	     36.89733793	     -5.70632401	     -4.52339078	     37.57946287	     91.21940407
      1.32916670	    -15.53252011	      0.01704584	      0.37296502	     -0.90107886	      1.11849297	     -0.06313829	     57.59742962	      0.17810950	      0.01377355	     76.19515905	      1.32985640	     27.29275716	    -26.54859596	     -7.49999987	     54.72683195	    -11.00564142	     -2.26356731	     77.29096672	      1.34898185	     33.74579845	      6.77268495	     -7.49999987	    -62.32918662	     -3.10786729	      0.97893914	     38.90002411	     -6.50297119	      1.31055781	     39.08601120	    102.45264269	     38.40741541	     -5.73426752	     -4.51457935	     37.97501832	     91.24747973
      1.33333330	    -15.60174848	     -0.03692070	      0.06645417	     -0.89938927	      1.11644058	     -0.05838871	     57.68550999	      0.81374497	      0.14798325	     76.30232055	      1.33172672	     27.24696356	    -26.74409904	     -7.49999987	     54.86130715	    -11.84177686	     -2.55816261	     77.72017592	      1.35647296	     33.66125934	      7.35201998	     -7.49999987	    -62.32278105	     -3.63540666	      1.13528613	     40.03492873	     -6.26273203	      1.87844893	     39.01174664	    102.33239428	     40.29320592	     -6.06227010	     -3.55838696	     37.55964946	     90.66321156
      1.33750000	    -15.78919850	     -0.05307547	     -0.04840554	     -0.89614314	      1.11312485	     -0.06052229	     57.84278442	      1.06273284	      0.18582868	     76.63100973	      1.33746343	     27.57088911	    -26.86956930	     -7.49999987	     55.05784952	    -12.17979246	     -2.62018130	     78.12744769	      1.36358120	     33.71446275	      7.53263158	     -7.49999987	    -62.11869968	     -3.88822242	      1.06774554	     40.83152066	     -5.86749865	      1.98896359	     39.40594972	    102.36103717	     41.70168599	     -6.23258746	     -3.52325832	     37.98819670	     90.68271397
      1.34166670	    -16.09508827	     -0.03650698	     -0.14637354	     -0.89525841	      1.10955566	     -0.06021734	     58.31143920	      1.33111768	      0.28842783	     77.20152331	      1.34742077	     27.46534643	    -27.51385644	     -7.49999987	     55.51877122	    -12.56387267	     -2.75933416	     78.72633604	      1.37403377	     34.12358440	      8.36010392	     -7.49999987	    -61.69995813	     -4.16047616	      0.95526811	     41.42719826	     -5.55154057	      2.30888805	     39.94791683	    101.22036288	     42.93389000	     -6.46056986	     -3.25961591	     38.41873497	     89.98078550
      1.34583330	    -16.28315776	     -0.05416209	     -0.00217735	     -0.90151269	      1.10984422	     -0.05919378	     58.84934401	      1.42481462	      0.22887837	     77.58727247	      1.35415336	     27.49625933	    -27.80233643	     -7.49999987	     56.00532397	    -12.46506687	     -2.57815355	     78.95481431	      1.37802147	     34.18111771	      8.28685704	     -7.49999987	    -61.56409311	     -4.21053776	      0.87589868	     42.52372584	     -5.31171912	      2.34949498	     40.30272821	    101.27720072	     44.62395974	     -6.49824629	     -3.25299031	     38.90427973	     90.00754454
      1.35000000	    -17.32542342	     -0.06243715	      0.27583308	     -0.90212314	      1.10586710	     -0.05932963	     60.68280564	      1.37890067	      0.15662192	     78.32362715	      1.36700518	     26.32854199	    -29.37683866	     -7.49999987	     57.67393849	    -12.19878559	     -2.22253987	     79.40131996	      1.38581446	     33.97280973	      8.02981863	     -7.49999987	    -60.31269902	     -4.11064722	      0.69883159	     43.46199103	     -5.33435976	      2.91093395	     40.74471849	    101.21722439	     46.23538938	     -6.75853059	     -2.16815042	     38.66016858	     89.29170834
